<?xml version="1.0" encoding="UTF-8"?>
<svg id="final_name_text" xmlns="http://www.w3.org/2000/svg" version="1.1" viewBox="0 0 871.1 221.3">
  <!-- Generator: Adobe Illustrator 29.1.0, SVG Export Plug-In . SVG Version: 2.1.0 Build 142)  -->
  <defs>
    <style>
      .st0 {
        fill: #e07e0ee6;
      }
    </style>
  </defs>
  <path class="st0" d="M113.6,89.9c-2.6,4.3-8,17.6-11.4,30.8-2,7.9-3.1,23.7,1.5,27.2.8.6,3.6.6,5.3-1.1,7.1-6.9,10.3-13.4,15.6-22.1,2.8-4.6,13.5-22.3,21.4-44.7,6.6-18.9,7.9-39.6,4-47.3-2.5-4.8-6.6-8.3-12.1-9-18.5-2.1-39.3,9.5-53.9,19.7-16.1,11.5-29.4,28.1-38.8,45.6-9.2,17.6-17,37-16.3,56.5.3,14,6.8,28.1,17.6,37.6,13.3,11.6,34.8,14.2,52.3,12.5,13-1.6,28-8,37.7-17.2,7.8-7.3,14.4-13.6,20.9-24.9,6.3-10.9,9.1-21.2,7.3-34.8-.4-3.4,3.1-4.2,5.9-2.3,6.8,4.6,21.7,11,18.6,36.1-2.3,18.3-26.3,46.8-51.9,56.8-11.8,4.6-24.7,8.2-36.9,8.3-8,0-17.6-.6-25.5-1.9-23.1-3.8-38.2-13.5-53.2-32.4C-1.2,154.7-.2,118.7,13.8,86.1c7.9-19.6,21.9-36.1,38.2-48.9,22.1-17.9,49.5-29.5,78.2-30.4,27.1-1.2,41.9,17.3,45.1,42.3,2.4,20.6-2.9,41.4-12.9,59.6-5.9,10.4-12.8,19.9-20.8,28.6-5.4,5.9-10.8,11.4-16.4,17.2-15.9,16.6-36,16.9-43.7,3-8-14.4-7.4-38.8-1.5-56.1,3-8.7,6.1-13.8,13.5-19,5.9-4.1,9.9-4.5,14.9-4.3s9.3,3.3,9.4,5.7c.2,1.3-1.7,1.7-4.3,5.9h0Z"/>
  <path class="st0" d="M110.4,49.9c10.5,0,13.2,6.2,12.8,9-.6,4.8-4.6,11.6-15.7,13.5-11.2,1.9-17.4-.2-17.6-7.8s9.5-14.7,20.4-14.7h0Z"/>
  <path class="st0" d="M175,112.2l8.3-49.7c1.8-9.9,2.9-18.7,3.8-25.6h20.4l-1,11.5h.3c6.4-9.5,14.3-13.2,22.7-13.2,12.2,0,17.2,8.6,17.2,20.5s-.5,9.3-1.1,12.9l-7.3,43.6h-23.2l6.8-40.9c.4-2.6.7-5.4.7-8,0-4.3-1.1-7.4-5-7.4s-11.3,8.3-14,24l-5.3,32.1h-23.2,0ZM296,110.1c-4.6,2.4-11.3,3.7-18.8,3.7-16.2,0-29.1-10.6-29.1-31.7s18.6-46.8,44.7-46.8,9.9.9,13.3,2.3l-5.4,19.7c-2.2-.9-4.6-1.4-8-1.4-12.6,0-20.4,10.9-20.4,23.4s6,13.8,11.7,13.8,8.8-1.2,12.2-2.7l-.3,19.7h0ZM339.4,112.2c.1-4.3.4-8.7.5-13h-.3c-5.7,11.2-14,14.7-21.1,14.7-12.1,0-20.6-10.4-20.6-26.8,0-24.9,14-51.9,48.5-51.9s17.8,2,23.8,4.1l-7.1,39.5c-1.4,8.1-2.9,23.6-2.6,33.4h-21.2ZM344.3,55.3c-1.5-.3-3.1-.5-4.2-.5-10.9,0-17.9,16.4-17.9,27.4s2.6,10.7,6.7,10.7,9.8-4.7,12.8-22.5l2.7-15.1h0ZM365.3,112.2l8.3-49.7c1.8-9.9,2.9-18.7,3.8-25.6h20.4l-1,11.5h.3c6.4-9.5,14.3-13.2,22.7-13.2,12.2,0,17.2,8.6,17.2,20.5s-.5,9.3-1.1,12.9l-7.3,43.6h-23.2l6.8-40.9c.4-2.6.7-5.4.7-8,0-4.3-1.1-7.4-5-7.4s-11.3,8.3-14,24l-5.3,32.1h-23.2,0ZM485.8,110.1c-4.6,2.4-11.3,3.7-18.8,3.7-16.2,0-29.1-10.6-29.1-31.7s18.6-46.8,44.7-46.8,9.9.9,13.3,2.3l-5.4,19.7c-2.2-.9-4.6-1.4-8-1.4-12.6,0-20.4,10.9-20.4,23.4s6,13.8,11.7,13.8,8.8-1.2,12.2-2.7l-.3,19.7h0ZM544.4,108c-9,4.9-19.4,5.8-26.2,5.8-19.6,0-30.3-11.5-30.3-32.4s14.7-46.1,39.9-46.1,24.7,8.6,24.7,24-15.2,26.5-42.8,25.6c.3,1.7,1.1,3.7,2.5,5.1,2.6,2.4,6.7,3.8,12,3.8s13.2-1.5,19-4.6l1.2,18.8h0ZM525,54.1c-8.3,0-12.4,7-13,11.9,14.1.1,19-2.1,19-6.9s-2.2-5.1-6-5.1h0ZM548.2,112.2l18.5-108.7h23.1l-18.5,108.7h-23.1ZM621.7,112.2c.1-4.3.4-8.7.5-13h-.3c-5.7,11.2-14,14.7-21.1,14.7-12.1,0-20.7-10.4-20.7-26.8,0-24.9,14-51.9,48.5-51.9s17.8,2,23.8,4.1l-7.1,39.5c-1.4,8.1-2.8,23.6-2.6,33.4h-21.2ZM626.6,55.3c-1.5-.3-3.1-.5-4.2-.5-10.9,0-17.9,16.4-17.9,27.4s2.6,10.7,6.7,10.7,9.8-4.7,12.8-22.5l2.7-15.1h0ZM688.1,3.6l-7.5,40.4h.3c4.5-5.1,11.5-8.7,19.4-8.7,13.6,0,20.1,12.6,20.1,26,0,24.9-14,52.6-45.2,52.6s-25.3-8.6-25.1-21.7c0-5.1.7-9.8,1.6-14.7l13.2-73.9h23.2,0ZM674.8,79.3c-.4,2.4-1,5.1-.7,8,.1,4.6,2.6,7,6.1,7,8.8,0,15.9-15.6,15.9-27.2s-2.3-10.7-7.1-10.7-11.4,6.4-13.3,17.6l-1,5.4h0ZM716.3,112.2l18.5-108.7h23.1l-18.5,108.7h-23.1ZM806.6,108c-9,4.9-19.4,5.8-26.2,5.8-19.6,0-30.3-11.5-30.3-32.4s14.7-46.1,39.9-46.1,24.7,8.6,24.7,24-15.2,26.5-42.8,25.6c.3,1.7,1.1,3.7,2.5,5.1,2.6,2.4,6.7,3.8,12,3.8s13.2-1.5,19-4.6l1.2,18.8h0ZM787.2,54.1c-8.3,0-12.4,7-13,11.9,14.1.1,19-2.1,19-6.9s-2.2-5.1-6-5.1h0ZM814.9,89.6c4.1,2.1,11.8,5.5,18.8,5.4,4.6,0,6.5-2,6.5-4.4s-2-4.9-7.9-7.8c-7.6-4.1-15-10.4-15-20.4,0-16.7,13-27.1,31.5-27.1s15,1.8,18.5,4l-5.3,18.1c-3-1.4-7.9-3.2-14.1-3.2s-7.2,1.5-7.2,4.6,2.5,4.4,7.6,7c7.2,3.8,16,9.5,16,20.8,0,17.9-13.7,27.2-32.9,27.2s-17.7-2.6-22-6.1l5.4-18.1h0Z"/>
</svg>