<?xml version="1.0" encoding="UTF-8"?>
<svg id="final_name_text" data-name="final name text" xmlns="http://www.w3.org/2000/svg" viewBox="0 0 185.98 210.94">
  <defs>
    <style>
      .cls-1 {
        fill: #e07e0ee6;
      }
    </style>
  </defs>
  <path class="cls-1" d="M109.78,83.1c-2.61,4.28-8,17.57-11.41,30.83-2.04,7.93-3.15,23.7,1.51,27.24.77.58,3.56.62,5.31-1.08,7.07-6.91,10.29-13.41,15.62-22.07,2.8-4.65,13.54-22.34,21.39-44.67,6.65-18.94,7.86-39.61,4.04-47.29-2.46-4.76-6.62-8.33-12.12-9.03-18.49-2.13-39.33,9.52-53.94,19.72-16.06,11.5-29.41,28.15-38.78,45.64-9.18,17.59-17.04,37.04-16.31,56.52.27,14.03,6.79,28.14,17.64,37.6,13.28,11.58,34.78,14.24,52.32,12.48,13.02-1.6,27.97-8.05,37.74-17.21,7.82-7.32,14.37-13.56,20.93-24.88,6.34-10.93,9.12-21.21,7.34-34.84-.44-3.4,3.12-4.21,5.91-2.29,6.76,4.65,21.69,11,18.59,36.06-2.26,18.3-26.26,46.81-51.92,56.79-11.76,4.57-24.72,8.24-36.95,8.32-8.03.02-17.61-.62-25.54-1.9-23.09-3.76-38.25-13.48-53.15-32.36C-5,147.89-3.99,111.91,9.96,79.32c7.93-19.59,21.88-36.13,38.23-48.87C70.32,12.54,97.69.96,126.35.05c27.13-1.19,41.87,17.34,45.14,42.29,2.43,20.56-2.91,41.43-12.95,59.64-5.86,10.38-12.84,19.87-20.79,28.58-5.38,5.85-10.79,11.43-16.35,17.23-15.88,16.56-35.99,16.86-43.71,3.02-8.03-14.39-7.39-38.77-1.49-56.08,2.97-8.71,6.05-13.84,13.54-19.01,5.94-4.1,9.92-4.46,14.85-4.28s9.29,3.34,9.45,5.7c.17,1.3-1.66,1.66-4.28,5.94l.02.02Z"/>
  <path class="cls-1" d="M106.63,43.18c10.46-.04,13.19,6.16,12.83,9.03-.59,4.75-4.63,11.64-15.68,13.54-11.17,1.92-17.35-.24-17.58-7.84s9.49-14.69,20.44-14.73h0Z"/>
</svg>